<?xml version="1.0" encoding="utf-8"?>
<!-- Generator: Adobe Illustrator 14.0.0, SVG Export Plug-In . SVG Version: 6.00 Build 43363)  -->
<!DOCTYPE svg PUBLIC "-//W3C//DTD SVG 1.1//EN" "http://www.w3.org/Graphics/SVG/1.1/DTD/svg11.dtd">
<svg version="1.1" id="图层_1" xmlns="http://www.w3.org/2000/svg" xmlns:xlink="http://www.w3.org/1999/xlink" x="0px" y="0px"
	 width="83.235px" height="40.027px" viewBox="0 0 83.235 40.027" enable-background="new 0 0 83.235 40.027" xml:space="preserve">
<g>
	<ellipse fill="#333333" cx="-25.347" cy="11.819" rx="9.204" ry="11.819"/>
	<path fill="#333333" d="M-32.748,26.313c0,0,6.709,12.077,14.845,0c0,0,8.173-1.081,7.896,13.271c0,0-0.113,0.403-0.364,0.42
		h-29.726c0,0-0.225,0.047-0.354-0.268C-40.45,39.737-41.49,26.397-32.748,26.313z"/>
</g>
<path fill="#333333" d="M12.123,0.613c0,0-14.197,0.09-11.864,15.756c0,0,0,6.583,11.833,23.583
	c11.833-17,11.833-23.583,11.833-23.583C26.258,0.702,12.123,0.613,12.123,0.613z M12.092,19.976c-3.748,0-6.787-3.039-6.787-6.788
	S8.344,6.4,12.092,6.4c3.749,0,6.788,3.039,6.788,6.788S15.841,19.976,12.092,19.976z"/>
<g enable-background="new    ">
	<path fill="#333333" d="M29.061,1.65h-1.727v4.996h-1.293V1.65h-1.723V0.595h4.742V1.65z"/>
	<path fill="#333333" d="M33.471,6.646h-3.582V0.595h3.441V1.65h-2.152v1.426h2v1.051h-2v1.465h2.293V6.646z"/>
	<path fill="#333333" d="M39.842,6.646h-1.32l-2.563-3.914C35.826,2.529,35.73,2.365,35.67,2.24h-0.02
		c0.023,0.208,0.035,0.53,0.035,0.965v3.441h-1.223V0.595h1.406L38.338,4.4c0.164,0.253,0.264,0.413,0.301,0.48h0.02
		c-0.026-0.146-0.039-0.425-0.039-0.836V0.595h1.223V6.646z"/>
	<path fill="#333333" d="M40.971,5.123c0.487,0.403,1.041,0.605,1.66,0.605c0.352,0,0.616-0.061,0.793-0.182
		s0.266-0.276,0.266-0.467c0-0.164-0.07-0.319-0.211-0.465s-0.512-0.344-1.113-0.594c-0.945-0.401-1.418-0.984-1.418-1.75
		c0-0.563,0.214-0.999,0.643-1.311s0.995-0.467,1.701-0.467c0.591,0,1.087,0.077,1.488,0.23v1.211
		c-0.406-0.276-0.882-0.414-1.426-0.414c-0.317,0-0.571,0.058-0.762,0.174s-0.285,0.271-0.285,0.467c0,0.156,0.065,0.3,0.195,0.432
		s0.452,0.31,0.965,0.533c0.602,0.258,1.015,0.53,1.24,0.816s0.338,0.628,0.338,1.023c0,0.581-0.206,1.023-0.617,1.328
		s-0.996,0.457-1.754,0.457c-0.693,0-1.26-0.112-1.703-0.336V5.123z"/>
	<path fill="#333333" d="M45.682,3.701c0-0.948,0.276-1.72,0.83-2.314s1.284-0.893,2.193-0.893c0.864,0,1.561,0.288,2.088,0.863
		s0.791,1.315,0.791,2.219c0,0.942-0.274,1.708-0.822,2.295s-1.267,0.881-2.154,0.881c-0.867,0-1.571-0.284-2.113-0.854
		S45.682,4.596,45.682,3.701z M47.037,3.631c0,0.589,0.142,1.069,0.426,1.443s0.673,0.561,1.168,0.561
		c0.505,0,0.898-0.179,1.18-0.537s0.422-0.839,0.422-1.443c0-0.63-0.137-1.128-0.41-1.494s-0.659-0.549-1.156-0.549
		c-0.505,0-0.903,0.188-1.193,0.563S47.037,3.034,47.037,3.631z"/>
	<path fill="#333333" d="M54.818,4.775H52.51V3.885h2.309V4.775z"/>
	<path fill="#333333" d="M58.521,4.271c0,0.8-0.185,1.413-0.553,1.84s-0.896,0.641-1.584,0.641c-0.305,0-0.587-0.052-0.848-0.156
		V5.381c0.224,0.169,0.479,0.254,0.766,0.254c0.62,0,0.93-0.47,0.93-1.41V0.595h1.289V4.271z"/>
	<path fill="#333333" d="M64.865,6.646h-1.406L63.006,5.26h-2.199l-0.445,1.387h-1.398l2.215-6.051h1.516L64.865,6.646z
		 M62.701,4.263l-0.688-2.098c-0.044-0.133-0.075-0.309-0.094-0.527h-0.035c-0.016,0.177-0.051,0.348-0.105,0.512l-0.691,2.113
		H62.701z"/>
	<path fill="#333333" d="M66.92,4.537v2.109h-1.289V0.595h2.082c1.505,0,2.258,0.638,2.258,1.914c0,0.62-0.228,1.116-0.682,1.49
		s-1.022,0.553-1.705,0.537H66.92z M66.92,1.595v1.953h0.559c0.758,0,1.137-0.329,1.137-0.988c0-0.644-0.375-0.965-1.125-0.965
		H66.92z"/>
	<path fill="#333333" d="M75.611,6.646h-1.406L73.752,5.26h-2.199l-0.445,1.387h-1.398l2.215-6.051h1.516L75.611,6.646z
		 M73.447,4.263L72.76,2.166c-0.044-0.133-0.075-0.309-0.094-0.527h-0.035c-0.016,0.177-0.051,0.348-0.105,0.512l-0.691,2.113
		H73.447z"/>
	<path fill="#333333" d="M81.756,6.646h-1.32l-2.563-3.914c-0.133-0.203-0.229-0.367-0.289-0.492h-0.02
		C77.588,2.448,77.6,2.77,77.6,3.205v3.441h-1.223V0.595h1.406L80.252,4.4c0.164,0.253,0.265,0.413,0.301,0.48h0.02
		c-0.026-0.146-0.039-0.425-0.039-0.836V0.595h1.223V6.646z"/>
</g>
<g>
	<path fill="#333333" d="M188.528,36.005c0,2.209-1.791,4-4,4h-88c-2.209,0-4-1.791-4-4v-32c0-2.209,1.791-4,4-4h88
		c2.209,0,4,1.791,4,4V36.005z"/>
	<text transform="matrix(1 0 0 1 96.2412 23.5974)" fill="#FFFFFF" font-family="'MicrosoftYaHei-Bold'" font-size="12">TENSO-JAPAN</text>
</g>
<g>
	<g>
		<path fill="#333333" d="M226.075,36.413h-7.123V18.49h-1.402v15.8h-1.242c0.112-1.798-0.933-1.793-0.933-1.793l-2.666-14.007
			h-9.308c-0.397,0.086-0.408,0.448-0.408,0.448v11.163l-3.465-0.686c-0.689-0.333-1,0.422-1,0.422v6.909
			c0.089,0.399,0.354,0.511,0.354,0.511h0.889c0.246-3.487,3.222-3.398,3.222-3.398c3.465,0.044,3.421,3.376,3.421,3.376h1.911
			c0.065-3.421,3.176-3.376,3.176-3.376c3.644,0.111,3.39,3.438,3.39,3.438h0.842c0.666-0.199,0.59-1.525,0.59-1.525h1.244
			l-0.01,2.043C226.208,37.814,226.075,36.413,226.075,36.413z M204.047,29.264v-9.311c0.128-0.355,0.394-0.472,0.394-0.472h6.806
			c0.636,0,0.792,0.669,0.792,0.669l1.781,9.111L204.047,29.264L204.047,29.264z"/>
		<g>
			<circle fill="#333333" cx="203.034" cy="37.083" r="2.802"/>
			<circle fill="#FFFFFF" cx="203.034" cy="37.083" r="1.142"/>
		</g>
		<g>
			<circle fill="#333333" cx="211.608" cy="37.083" r="2.802"/>
			<circle fill="#FFFFFF" cx="211.608" cy="37.083" r="1.141"/>
		</g>
		<g>
			<circle fill="#333333" cx="208.106" cy="22.613" r="1.953"/>
			<path fill="#333333" d="M205.653,29.264c0,0-0.357-2.047,0.037-3.238c0.192-0.583,0.611-1.609,1.955-1.169
				c0,0,0.832,0.125,1.053,2.077l0.144,2.33H205.653z"/>
			<path fill="#333333" d="M210.446,29.264l1.855-2.484c0,0,0.643-0.362,0.607,0.326l-1.553,2.158H210.446z"/>
			<polyline fill="#333333" points="211.671,28.556 212.69,29.301 213.362,29.264 211.946,28.151 211.671,28.51 			"/>
			<path fill="#333333" d="M208.341,28.475c0.782,0.535,4.12,0.46,4.016-0.439c0,0,0.188-0.563-1.265-0.575
				c0,0-0.55-0.03-1.669-0.229c0,0-1.035-0.261-1.541-1.229c-0.133-0.313-1.357-0.811-1.436,0.339
				C206.444,26.343,206.267,27.055,208.341,28.475z"/>
		</g>
		<path fill="#333333" d="M225.696,27.945c0,0.394-0.317,0.711-0.709,0.711h-4.645c-0.394,0-0.712-0.317-0.712-0.711v-4.643
			c0-0.394,0.318-0.711,0.712-0.711h4.645c0.393,0,0.709,0.318,0.709,0.711V27.945z"/>
		<path fill="#333333" d="M225.696,34.869c0,0.394-0.317,0.711-0.709,0.711h-4.645c-0.394,0-0.712-0.317-0.712-0.711v-4.644
			c0-0.394,0.318-0.71,0.712-0.71h4.645c0.393,0,0.709,0.317,0.709,0.71V34.869z"/>
	</g>
	<g>
		<path fill="#333333" d="M245.433,0.067l-19.548,9.017v5.405c0.03,0.5,0.327,0.466,0.327,0.466h1.859v24.348
			c0.047,0.547,0.422,0.577,0.422,0.577h16.938h17.926c0,0,0.396-0.03,0.446-0.577V14.955h1.968c0,0,0.313,0.034,0.348-0.466V9.083
			L245.433,0.067z"/>
		<polygon fill="#FFFFFF" points="264.024,10.552 245.369,2.567 228.071,10.552 228.071,12.738 230.36,12.738 230.308,37.676 
			245.369,37.676 261.614,37.676 261.558,12.738 264.024,12.738 		"/>
		<rect x="232.515" y="19.469" fill="#333333" width="26.75" height="18.208"/>
		<rect x="232.515" y="13.859" fill="#333333" width="5.608" height="3.385"/>
		<rect x="239.283" y="13.859" fill="#333333" width="5.608" height="3.385"/>
		<rect x="246.399" y="13.859" fill="#333333" width="5.607" height="3.385"/>
		<rect x="253.655" y="13.859" fill="#333333" width="5.609" height="3.385"/>
		<rect x="234.787" y="25.171" fill="#FFFFFF" width="6.629" height="3.4"/>
		<rect x="234.787" y="29.76" fill="#FFFFFF" width="6.629" height="3.4"/>
		<rect x="234.787" y="34.275" fill="#FFFFFF" width="6.629" height="3.4"/>
		<rect x="242.575" y="34.275" fill="#FFFFFF" width="6.629" height="3.4"/>
		<rect x="242.575" y="29.76" fill="#FFFFFF" width="6.629" height="3.4"/>
		<rect x="250.34" y="34.275" fill="#FFFFFF" width="6.63" height="3.4"/>
	</g>
</g>
<g>
	<path fill="#333333" d="M315.69,25.823h15.177c0,0,0.301,0.064,0.37,0.396v6.398h-21.271v-1.725l-0.769-0.341l-0.604,0.535v7.4
		c0,0,0.359,1.303,1.328,1.465h21.313c0,0,0.91-0.18,1.393-1.363V25.898c0,0-0.352-1.095-1.432-1.432H317.83
		c0,0,0.073-4.266-0.188-7.216c0,0-0.672-3.39-3.39-6.516c0,0-2.911-3.974-3.224-5.608c0,0-0.643-2.201-4.459-2.608
		c0,0-21.543,0.292-26.45-2.514c0,0-3.222,6.085-3.918,9.724c0,0-0.351,1.733,0.388,1.979c0,0,3.919,1.424,5.264,2.904
		c0,0,2.979,2.435,7.217,4.129c0,0,5.58,2.22,7.304,2.717l-0.013,0.146c0,0-2.782-0.312-2.938,1.219c0,0-1.081,1.949,1.198,2.533
		c0,0,1.142,0.513,2.921,0.513c0,0-0.396,2.57,0.361,2.94c0,0,1.373,0.701,6.472-0.722l0.163,0.021c0,0-1.211,1.905,0.469,2.769
		c0,0,1.563,1.433,3.842-1.445l3.418,1.33c0,0,2.979,0.772,3.01-1.886c0,0,0.936-3.446-4.732-6.896c0,0-5.843-3.797-5.988-5.054
		c0,0-0.264-2.513,2.893-1.899c0,0,2.482,1.432,4.498,3.359c0,0,0.789,3.563,0.73,3.886
		C312.675,22.276,315.461,24.757,315.69,25.823z"/>
	<path fill="#FFFFFF" d="M310.013,36.406h21.235v1.851c0,0-0.138,0.273-0.457,0.32h-20.413c0,0-0.229-0.047-0.365-0.32V36.406z"/>
</g>
<g>
	<g>
		<path fill="#333333" d="M362.177,0.216l-19.548,9.017v5.406c0.031,0.5,0.328,0.465,0.328,0.465h1.858V39.45
			c0.047,0.547,0.422,0.577,0.422,0.577h16.938h17.925c0,0,0.396-0.03,0.446-0.577V15.103h1.97c0,0,0.313,0.035,0.348-0.465V9.231
			L362.177,0.216z"/>
		<polygon fill="#FFFFFF" points="380.769,10.7 362.112,2.716 344.815,10.7 344.815,12.886 347.104,12.886 347.052,37.825 
			362.112,37.825 378.358,37.825 378.302,12.886 380.769,12.886 		"/>
		<rect x="349.26" y="19.617" fill="#333333" width="26.748" height="18.208"/>
		<rect x="349.26" y="14.008" fill="#333333" width="5.608" height="3.385"/>
		<rect x="356.026" y="14.008" fill="#333333" width="5.609" height="3.385"/>
		<rect x="363.144" y="14.008" fill="#333333" width="5.608" height="3.385"/>
		<rect x="370.399" y="14.008" fill="#333333" width="5.607" height="3.385"/>
		<rect x="351.531" y="25.319" fill="#FFFFFF" width="6.629" height="3.401"/>
		<rect x="351.531" y="29.909" fill="#FFFFFF" width="6.629" height="3.4"/>
		<rect x="351.531" y="34.423" fill="#FFFFFF" width="6.629" height="3.4"/>
		<rect x="359.319" y="34.423" fill="#FFFFFF" width="6.629" height="3.4"/>
		<rect x="359.319" y="29.909" fill="#FFFFFF" width="6.629" height="3.4"/>
		<rect x="367.084" y="34.423" fill="#FFFFFF" width="6.629" height="3.4"/>
	</g>
	<g>
		<path fill="#333333" d="M410.756,33.268c0,0.552-0.452,1-1.01,1h-25.873c-0.56,0-1.011-0.448-1.011-1v-9.979
			c0-0.553,0.451-1,1.011-1h25.873c0.558,0,1.01,0.447,1.01,1V33.268z"/>
		<text transform="matrix(1 0 0 1 383.8916 29.3259)" fill="#FFFFFF" font-family="'MicrosoftYaHei-Bold'" font-size="3.5">TENSO-JAPAN</text>
		<path fill="#333333" d="M386.204,36.475c0,0-0.854,0.87,0,2.03h-2.313v-2.03H386.204z"/>
		<path fill="#333333" d="M393.728,36.475c0,0,0.719,1.133,0,2.03h19.404c0,0-0.719-5.229,3.688-5.229c0,0,4.281-0.094,3.938,4.72
			h3.563v-2.313l-0.453-0.406V29.54l-4.146-7.252h-7.479l-0.031,13.755c0,0,0.145,0.434-0.339,0.434L393.728,36.475L393.728,36.475z
			"/>
		<path fill="#FFFFFF" d="M414.772,24.919h-0.711h-0.711c0,0-0.315,0.061-0.252,0.431v4.314c0,0,0.029,0.18,0.361,0.269h0.602h0.602
			c0.332-0.09,0.363-0.269,0.363-0.269v-4.314C415.09,24.979,414.772,24.919,414.772,24.919z"/>
		<path fill="#FFFFFF" d="M415.429,24.919h3.656l2.984,3.357c0,0,0.219,0.643-0.095,0.643h-4.999l-0.291,0.114l-0.805,0.886
			c0,0-0.469,0.142-0.451-0.5V24.919L415.429,24.919z"/>
		<circle fill="#333333" cx="389.83" cy="37.604" r="2.424"/>
		<circle fill="#FFFFFF" cx="389.83" cy="37.604" r="1.604"/>
		<circle fill="#333333" cx="416.914" cy="37.604" r="2.423"/>
		<circle fill="#FFFFFF" cx="416.914" cy="37.604" r="1.603"/>
	</g>
</g>
<g>
	<path fill="#333333" d="M479.412,38.225c0,0.552-0.502,1-1.123,1h-2.23c-0.619,0-1.123-0.448-1.123-1V24.541
		c0-0.553,0.504-1,1.123-1h2.23c0.621,0,1.123,0.447,1.123,1V38.225z"/>
	<path fill="#333333" d="M473.293,35.689v-9.48c0,0-0.486-1.641-7.133-3.189c0,0-1.815-0.532-4.297,1.151l-2.97,1.507
		c0,0-0.436,0.401-3.094,0.489l-6.919-0.27c0,0-1.675-0.091-1.77,1.284c0,0-0.345,1.75,1.969,1.922c0,0,6.781,1.047,9.313,1.172
		c0,0,2.438,0.063,2.345,0.938c0,0,0.375,1.156-1.845,1.22l-11.799-1.25c0,0-0.981,0.063-3.451-2.47c0,0-5.344-7.563-7.344-8.03
		c0,0-2.438-1.063-1.938,1.563c0,0-0.125,0.53,2.459,4.155l5.791,8.625c0,0,0.625,1.083,1.875,1.542l8.084,3.292h2.625
		c0,0,14.75-3.417,16.375-3.708C471.572,36.151,472.681,35.978,473.293,35.689z"/>
	<path fill="#333333" d="M437.975,20.227c0,0,1.902,1.626,2.577,2.49c0,0,4.358,5.295,4.724,5.536h0.227c0,0,0.553-1.713,0.534-2.06
		c0,0-4.584-6.399-6.591-6.78C439.444,19.414,437.905,19.067,437.975,20.227z"/>
	<path fill="#333333" d="M442.3,20.192l4.812,5.018c0,0,1.105-0.778,2.214-0.831c0,0-4.773-4.999-5.467-4.896
		C443.856,19.483,442.316,19.292,442.3,20.192z"/>
	<polygon fill="#333333" points="445.447,5.977 445.447,18.977 455.803,24.256 455.803,11.275 	"/>
	<polygon fill="#333333" points="466.719,5.977 466.719,18.977 456.363,24.256 456.363,11.275 	"/>
	<g>
		<polygon fill="#C6000D" points="456.955,0.471 446.318,5.908 445.447,5.463 456.082,0.025 		"/>
		<polygon fill="#C6000D" points="458.907,1.47 450.051,5.997 449.179,5.552 458.036,1.024 		"/>
		<polygon fill="#C6000D" points="459.012,3.413 452.005,6.996 451.132,6.55 458.141,2.967 		"/>
		<polygon fill="#C6000D" points="460.966,4.411 453.956,7.994 453.084,7.548 460.094,3.965 		"/>
		<polygon fill="#C6000D" points="465.848,5.908 455.212,0.472 456.082,0.025 466.719,5.462 		"/>
		<polygon fill="#C6000D" points="456.082,10.899 445.447,5.463 446.318,5.017 456.954,10.454 		"/>
		<polygon fill="#C6000D" points="453.956,7.994 449.179,5.552 450.051,5.106 454.828,7.548 		"/>
		<polygon fill="#C6000D" points="462.048,5.854 457.27,3.413 458.141,2.967 462.92,5.409 		"/>
		<polygon fill="#C6000D" points="462.92,5.409 454.166,9.884 453.293,9.438 462.047,4.963 		"/>
		<polygon fill="#C6000D" points="466.719,5.463 456.084,10.899 455.212,10.454 465.848,5.018 		"/>
	</g>
</g>
</svg>
